<svg width="123" height="56" viewBox="0 0 123 56" fill="none" xmlns="http://www.w3.org/2000/svg">
<path d="M13.6746 27.5594L34.8662 0H25.6698L7.43705 23.8741V0H0V55.1989H7.43705V31.6452L29.2684 55.1989H39.2644L13.6746 27.5594Z" fill="black"/>
<path d="M44.2325 51.0329C44.2325 53.917 46.6315 56 49.5104 56C52.3093 56 54.7083 53.917 54.7083 51.0329C54.7083 48.1488 52.3093 45.9857 49.5104 45.9857C46.6315 45.9857 44.2325 48.1488 44.2325 51.0329ZM44.2325 21.9514C44.2325 24.8355 46.6315 26.9986 49.5104 26.9986C52.3093 26.9986 54.7083 24.8355 54.7083 21.9514C54.7083 19.0672 52.3093 16.9843 49.5104 16.9843C46.6315 16.9843 44.2325 19.0672 44.2325 21.9514Z" fill="black"/>
<path d="M97.7756 0H89.8588L62.6695 55.1989H70.5864L97.7756 0Z" fill="black"/>
<path d="M123 0H115.083L87.8939 55.1989H95.8108L123 0Z" fill="black"/>
</svg>
